<?xml version="1.0" encoding="UTF-8"?>
<svg width="438px" height="112px" viewBox="0 0 438 112" version="1.1" xmlns="http://www.w3.org/2000/svg" xmlns:xlink="http://www.w3.org/1999/xlink">
    <title>Group 10</title>
    <g id="Page-1" stroke="none" stroke-width="1" fill="none" fill-rule="evenodd">
        <g id="Group-10">
            <g id="Group-2">
                <g id="Group-2-Copy" transform="translate(1.000000, 1.000000)">
                    <rect id="Rectangle-Copy-5" fill="#1B76E9" x="0" y="0" width="79" height="79" rx="9"></rect>
                    <rect id="Rectangle" fill="#3C50B6" x="30" y="29" width="79" height="79" rx="9"></rect>
                    <path d="M82,28 L82,73 C82,77.9705627 77.9705627,82 73,82 L29,82 L29,37 C29,32.0294373 33.0294373,28 38,28 L82,28 Z" id="Combined-Shape" fill="#00FFD1"></path>
                </g>
                <rect id="Rectangle-Copy-5" x="0" y="0" width="83" height="83" rx="9"></rect>
                <rect id="Rectangle-Copy-6" x="30" y="29" width="83" height="83" rx="9"></rect>
            </g>
            <path d="M218.36,106 L218.36,93.078 L195.924,93.078 C170.648,93.078 156.59,81.576 156.59,55.732 C156.59,29.32 170.932,18.244 195.924,18.244 L218.36,18.244 L218.36,5.464 L192.942,5.464 C160.566,5.464 141.822,21.794 141.822,55.732 C141.822,87.966 159.43,106 192.942,106 L218.36,106 Z M287.656,106 L287.656,94.214 L264.084,94.214 C250.168,94.214 241.932,86.262 241.222,73.056 L296.602,73.056 C296.602,73.056 296.665111,71.0364444 296.707185,69.058963 L296.717217,68.5666622 C296.733043,67.7515988 296.744,66.9736667 296.744,66.382 C297.17,41.958 284.958,29.32 262.948,29.32 C242.358,29.32 227.448,41.532 227.448,67.092 C227.448,92.226 241.222,106 264.226,106 L287.656,106 Z M283.396,61.412 L240.796,61.412 C241.506,48.348 250.168,40.964 262.664,40.964 C276.722,40.964 283.68,48.49 283.396,61.412 Z M320.316,106 L320.316,58.572 C320.316,46.928 325.996,42.668 335.936,42.668 L345.592,42.668 L345.592,31.024 L332.812,31.024 C316.908,31.024 307.252,38.124 307.252,56.584 L307.252,106 L320.316,106 Z M388.618,106 L388.618,94.214 L383.932,94.214 C374.134,94.214 368.312,89.954 368.312,78.452 L368.312,42.668 L388.618,42.668 L388.618,31.024 L368.312,31.024 L368.312,5.464 L355.248,5.464 L355.248,80.44 C355.248,98.9 365.046,106 380.808,106 L388.618,106 Z M418.438,106 C434.768,106 442.152,90.522 432.212,77.742 L415.456,56.3 C409.066,47.922 410.912,42.668 420.994,42.668 L434.484,42.668 L434.484,31.024 L415.172,31.024 C397.564,31.024 393.446,47.212 401.54,57.578 L418.154,78.878 C425.68,88.676 422.698,94.356 412.474,94.356 L398.274,94.356 L398.274,106 L418.438,106 Z" id="Certs" stroke="#21262D" stroke-width="1.5" fill="#21262D" fill-rule="nonzero"></path>
        </g>
    </g>
</svg>